<svg width="925" height="925" viewBox="0 0 925 925" fill="none" xmlns="http://www.w3.org/2000/svg">
<path d="M289.062 867.188C320.991 867.188 346.875 841.304 346.875 809.375C346.875 777.446 320.991 751.562 289.062 751.562C257.134 751.562 231.25 777.446 231.25 809.375C231.25 841.304 257.134 867.188 289.062 867.188Z" fill="black"/>
<path d="M693.75 867.188C725.679 867.188 751.562 841.304 751.562 809.375C751.562 777.446 725.679 751.562 693.75 751.562C661.821 751.562 635.938 777.446 635.938 809.375C635.938 841.304 661.821 867.188 693.75 867.188Z" fill="black"/>
<path d="M143.953 81.0531C142.644 74.5027 139.106 68.6079 133.942 64.3709C128.777 60.134 122.305 57.8165 115.625 57.8125H0V115.625H91.9219L202.922 670.509C204.231 677.06 207.769 682.955 212.933 687.192C218.098 691.428 224.57 693.746 231.25 693.75H751.562V635.938H254.953L231.828 520.312H751.562C758.138 520.311 764.517 518.068 769.646 513.953C774.775 509.839 778.348 504.098 779.775 497.679L845.334 202.344H786.163L728.38 462.5H220.266L143.953 81.0531Z" fill="black"/>
<path d="M491.406 57.8125C457.104 57.8125 423.571 67.9844 395.05 87.042C366.528 106.1 344.298 133.187 331.171 164.878C318.044 196.57 314.609 231.442 321.301 265.086C327.994 298.73 344.512 329.633 368.767 353.889C393.023 378.144 423.927 394.663 457.57 401.355C491.214 408.047 526.086 404.612 557.778 391.485C589.47 378.358 616.557 356.128 635.614 327.607C654.672 299.085 664.844 265.553 664.844 231.25C664.79 185.268 646.5 141.185 613.986 108.67C581.472 76.1561 537.388 57.8661 491.406 57.8125V57.8125ZM491.406 115.625C511.981 115.733 532.145 121.396 549.768 132.015L392.171 289.612C381.553 271.988 375.891 251.825 375.781 231.25C375.82 200.596 388.014 171.209 409.689 149.533C431.365 127.857 460.752 115.663 491.406 115.625V115.625ZM491.406 346.875C470.831 346.767 450.668 341.104 433.045 330.485L590.641 172.888C601.259 190.512 606.922 210.675 607.031 231.25C606.993 261.904 594.799 291.291 573.123 312.967C551.448 334.643 522.06 346.837 491.406 346.875V346.875Z" fill="black"/>
</svg>
