<svg width="277" height="390" viewBox="0 0 277 390" fill="none" xmlns="http://www.w3.org/2000/svg">
<path d="M197.338 208.117C172.881 230.292 154.199 258.095 142.908 289.117C131.616 320.139 128.057 353.446 132.538 386.153L144.32 384.844C140.859 355.356 143.932 325.467 153.321 297.299C162.71 269.132 178.185 243.377 198.647 221.863C198.21 217.281 197.774 212.699 197.338 208.117Z" fill="url(#paint0_linear_32_1118)"/>
<path d="M267.969 214.831C273.489 212.587 276.903 209.663 276.515 206.962C276.126 204.26 272.027 202.417 266.098 201.818C270.763 198.109 273.214 194.342 272.081 191.859C270.947 189.377 266.494 188.763 260.636 189.859C264.066 184.986 265.358 180.682 263.571 178.619C261.783 176.556 257.338 177.222 252.027 179.923C253.945 174.281 253.971 169.787 251.675 168.311C249.379 166.836 245.302 168.727 240.967 172.815C241.218 166.862 239.977 162.542 237.358 161.773C234.739 161.004 231.36 163.967 228.352 169.111C226.916 163.328 224.508 159.533 221.779 159.533C219.049 159.533 216.641 163.328 215.205 169.111C212.197 163.967 208.818 161.004 206.199 161.773C203.581 162.542 202.339 166.862 202.59 172.815C198.255 168.727 194.178 166.836 191.882 168.311C189.586 169.787 189.612 174.281 191.53 179.923C186.219 177.221 181.774 176.556 179.987 178.619C178.199 180.681 179.491 184.986 182.921 189.859C177.063 188.764 172.611 189.377 171.477 191.86C170.343 194.343 172.795 198.109 177.459 201.818C171.53 202.417 167.431 204.26 167.043 206.962C166.654 209.663 170.068 212.587 175.588 214.832C170.068 217.077 166.654 220 167.043 222.702C167.431 225.403 171.53 227.247 177.459 227.845C172.795 231.554 170.343 235.321 171.477 237.804C172.611 240.286 177.063 240.9 182.921 239.804C179.491 244.677 178.199 248.982 179.987 251.045C181.774 253.108 186.219 252.442 191.53 249.741C189.612 255.382 189.586 259.876 191.882 261.352C194.178 262.827 198.255 260.937 202.59 256.848C202.339 262.802 203.58 267.122 206.199 267.891C208.818 268.66 212.197 265.697 215.205 260.552C216.641 266.336 219.049 270.131 221.779 270.131C224.508 270.131 226.916 266.336 228.352 260.553C231.36 265.697 234.739 268.66 237.358 267.891C239.977 267.122 241.218 262.802 240.967 256.848C245.302 260.937 249.379 262.828 251.675 261.352C253.971 259.876 253.945 255.382 252.027 249.74C257.339 252.442 261.784 253.107 263.571 251.045C265.358 248.982 264.067 244.677 260.637 239.804C266.494 240.9 270.947 240.286 272.081 237.804C273.214 235.321 270.763 231.554 266.099 227.845C272.028 227.246 276.127 225.403 276.515 222.702C276.903 220 273.49 217.076 267.969 214.831ZM219.737 229.034C219.427 227.872 219.052 226.728 218.614 225.608C217.641 226.313 216.707 227.073 215.819 227.883C215.849 226.681 215.811 225.477 215.707 224.279C214.574 224.682 213.464 225.148 212.383 225.675C212.75 224.53 213.054 223.365 213.291 222.187C212.09 222.254 210.894 222.388 209.708 222.589C210.384 221.594 211.003 220.562 211.563 219.497C210.392 219.223 209.206 219.015 208.012 218.874C208.94 218.11 209.825 217.294 210.662 216.43C209.615 215.837 208.536 215.304 207.43 214.832C208.536 214.36 209.615 213.826 210.662 213.233C209.825 212.37 208.94 211.554 208.012 210.79C209.206 210.648 210.391 210.44 211.562 210.166C211.002 209.102 210.383 208.07 209.707 207.074C210.893 207.275 212.089 207.41 213.29 207.477C213.053 206.298 212.75 205.133 212.382 203.988C213.463 204.515 214.573 204.981 215.706 205.383C215.81 204.185 215.848 202.983 215.817 201.78C216.706 202.59 217.64 203.35 218.614 204.056C219.051 202.936 219.426 201.792 219.736 200.63C220.361 201.657 221.042 202.649 221.778 203.601C222.513 202.649 223.195 201.657 223.82 200.63C224.13 201.792 224.504 202.936 224.942 204.056C225.916 203.35 226.849 202.59 227.738 201.78C227.708 202.983 227.745 204.186 227.85 205.384C228.983 204.981 230.092 204.515 231.173 203.988C230.806 205.133 230.503 206.298 230.265 207.477C231.466 207.41 232.662 207.275 233.848 207.074C233.173 208.07 232.554 209.102 231.994 210.166C233.165 210.44 234.35 210.648 235.545 210.789C234.616 211.554 233.732 212.37 232.895 213.233C233.941 213.826 235.02 214.36 236.126 214.832C235.02 215.304 233.941 215.837 232.895 216.43C233.732 217.293 234.617 218.109 235.545 218.874C234.351 219.015 233.165 219.223 231.994 219.497C232.554 220.561 233.173 221.593 233.848 222.589C232.663 222.388 231.467 222.253 230.266 222.186C230.503 223.365 230.806 224.53 231.174 225.675C230.093 225.148 228.983 224.683 227.85 224.28C227.746 225.478 227.708 226.681 227.739 227.884C226.85 227.074 225.916 226.314 224.942 225.608C224.504 226.728 224.13 227.872 223.82 229.034C223.195 228.006 222.514 227.014 221.778 226.063C221.043 227.014 220.361 228.006 219.737 229.034V229.034Z" fill="#FFE6FE"/>
<path d="M221.779 230.769C230.581 230.769 237.716 223.634 237.716 214.832C237.716 206.03 230.581 198.894 221.779 198.894C212.977 198.894 205.842 206.03 205.842 214.832C205.842 223.634 212.977 230.769 221.779 230.769Z" fill="#FFFCE6"/>
<path d="M112.902 389.426C100.161 375.004 73.9553 341.178 67.0837 291.244C55.1064 204.21 111.957 141.544 120.4 132.54L129.538 138.412C121.053 147.994 69.8816 207.725 80.8293 290.59C87.3815 340.185 112.986 373.851 125.338 388.117L112.902 389.426Z" fill="url(#paint1_linear_32_1118)"/>
<path d="M121.289 152.012C121.289 131.125 134.968 114.192 134.968 114.192C134.968 114.192 148.648 131.124 148.648 152.012C148.648 172.9 142.523 189.832 134.968 189.832C127.414 189.832 121.289 172.899 121.289 152.012Z" fill="url(#paint2_linear_32_1118)"/>
<path d="M105.757 145.846C111.642 125.805 129.537 113.412 129.537 113.412C129.537 113.412 137.892 133.512 132.007 153.554C126.122 173.595 115.476 188.116 108.227 185.987C100.978 183.859 99.8724 165.887 105.757 145.846Z" fill="url(#paint3_linear_32_1118)"/>
<path d="M92.5926 135.552C103.885 117.981 124.547 111.132 124.547 111.132C124.547 111.132 126.901 132.772 115.608 150.344C104.316 167.915 90.0093 178.848 83.6537 174.764C77.2981 170.679 81.3003 153.123 92.5926 135.552Z" fill="url(#paint4_linear_32_1118)"/>
<path d="M82.8601 121.968C98.6452 108.29 120.4 107.54 120.4 107.54C120.4 107.54 116.562 128.967 100.776 142.645C84.9906 156.323 68.1834 162.783 63.2361 157.073C58.2888 151.363 67.0743 135.646 82.8601 121.968Z" fill="url(#paint5_linear_32_1118)"/>
<path d="M77.349 106.191C96.349 97.5147 117.433 102.924 117.433 102.924C117.433 102.924 107.713 122.401 88.7143 131.078C69.7151 139.755 51.7682 141.218 48.6298 134.346C45.4914 127.473 58.3494 114.868 77.349 106.191Z" fill="url(#paint6_linear_32_1118)"/>
<path d="M76.5066 89.5016C97.1811 86.529 115.888 97.6594 115.888 97.6594C115.888 97.6594 101.075 113.609 80.4001 116.582C59.7255 119.554 42.094 115.902 41.0188 108.424C39.9436 100.946 55.832 92.4741 76.5066 89.5016Z" fill="url(#paint7_linear_32_1118)"/>
<path d="M80.4002 73.25C101.075 76.2225 115.888 92.1724 115.888 92.1724C115.888 92.1724 97.1812 103.302 76.5067 100.33C55.8322 97.3582 39.9436 88.8857 41.0188 81.4076C42.094 73.9295 59.7256 70.2772 80.4002 73.25Z" fill="url(#paint8_linear_32_1118)"/>
<path d="M88.7146 58.7543C107.715 67.4311 117.434 86.9083 117.434 86.9083C117.434 86.9083 96.3489 92.3175 77.3493 83.6407C58.3497 74.9639 45.4917 62.3589 48.6303 55.4867C51.7689 48.6145 69.715 50.0775 88.7146 58.7543Z" fill="url(#paint9_linear_32_1118)"/>
<path d="M100.776 47.1873C116.561 60.8654 120.4 82.292 120.4 82.292C120.4 82.292 98.6454 81.542 82.8601 67.8637C67.0748 54.1854 58.2884 38.4686 63.2359 32.7589C68.1834 27.0492 84.9906 33.5091 100.776 47.1873Z" fill="url(#paint10_linear_32_1118)"/>
<path d="M115.608 39.4875C126.9 57.0589 124.547 78.699 124.547 78.699C124.547 78.699 103.885 71.85 92.5922 54.2788C81.2998 36.7076 77.2976 19.1519 83.6532 15.0674C90.0088 10.9829 104.315 21.9162 115.608 39.4875Z" fill="url(#paint11_linear_32_1118)"/>
<path d="M132.008 36.2785C137.892 56.3195 129.538 76.4199 129.538 76.4199C129.538 76.4199 111.642 64.0274 105.758 43.9863C99.8736 23.9452 100.979 5.9733 108.228 3.8448C115.476 1.7163 126.123 16.2374 132.008 36.2785Z" fill="url(#paint12_linear_32_1118)"/>
<path d="M148.648 37.82C148.648 58.7071 134.968 75.64 134.968 75.64C134.968 75.64 121.289 58.7066 121.289 37.82C121.289 16.9334 127.414 0 134.968 0C142.523 0 148.648 16.9324 148.648 37.82Z" fill="url(#paint13_linear_32_1118)"/>
<path d="M164.18 43.9863C158.295 64.0274 140.4 76.4199 140.4 76.4199C140.4 76.4199 132.045 56.3199 137.93 36.2784C143.814 16.2369 154.46 1.7163 161.709 3.8448C168.959 5.9733 170.064 23.9452 164.18 43.9863Z" fill="url(#paint14_linear_32_1118)"/>
<path d="M177.345 54.279C166.052 71.85 145.39 78.6992 145.39 78.6992C145.39 78.6992 143.037 57.0592 154.329 39.4877C165.622 21.9162 179.928 10.9831 186.284 15.0677C192.639 19.1523 188.637 36.7076 177.345 54.279Z" fill="url(#paint15_linear_32_1118)"/>
<path d="M187.077 67.864C171.291 81.5421 149.537 82.2923 149.537 82.2923C149.537 82.2923 153.375 60.8657 169.161 47.1876C184.946 33.5095 201.753 27.0496 206.701 32.7592C211.648 38.4688 202.862 54.1858 187.077 67.864Z" fill="url(#paint16_linear_32_1118)"/>
<path d="M192.588 83.64C173.588 92.3169 152.504 86.9076 152.504 86.9076C152.504 86.9076 162.224 67.4304 181.223 58.7536C200.222 50.0768 218.169 48.6136 221.307 55.486C224.446 62.3584 211.588 74.9634 192.588 83.64Z" fill="url(#paint17_linear_32_1118)"/>
<path d="M193.43 100.33C172.756 103.303 154.049 92.1721 154.049 92.1721C154.049 92.1721 168.862 76.2221 189.537 73.2496C210.211 70.2771 227.843 73.9296 228.918 81.4075C229.993 88.8854 214.105 97.3577 193.43 100.33Z" fill="url(#paint18_linear_32_1118)"/>
<path d="M189.537 116.582C168.863 113.609 154.05 97.6591 154.05 97.6591C154.05 97.6591 172.756 86.5291 193.431 89.5013C214.105 92.4735 229.994 100.946 228.919 108.424C227.843 115.902 210.212 119.554 189.537 116.582Z" fill="url(#paint19_linear_32_1118)"/>
<path d="M137.928 153.553C132.044 133.512 140.398 113.412 140.398 113.412C140.398 113.412 158.294 125.804 164.178 145.846C170.063 165.887 168.957 183.859 161.708 185.987C154.46 188.116 143.813 173.595 137.928 153.553Z" fill="url(#paint20_linear_32_1118)"/>
<path d="M181.223 131.077C162.223 122.401 152.504 102.923 152.504 102.923C152.504 102.923 173.588 97.5142 192.588 106.191C211.588 114.868 224.446 127.473 221.307 134.345C218.169 141.217 200.222 139.754 181.223 131.077Z" fill="url(#paint21_linear_32_1118)"/>
<path d="M169.161 142.644C153.376 128.966 149.537 107.539 149.537 107.539C149.537 107.539 171.292 108.289 187.077 121.968C202.863 135.646 211.649 151.363 206.701 157.072C201.754 162.782 184.947 156.322 169.161 142.644Z" fill="url(#paint22_linear_32_1118)"/>
<path d="M154.329 150.344C143.036 132.772 145.39 111.132 145.39 111.132C145.39 111.132 166.052 117.981 177.345 135.552C188.637 153.123 192.639 170.679 186.284 174.764C179.928 178.848 165.621 167.915 154.329 150.344Z" fill="url(#paint23_linear_32_1118)"/>
<path d="M134.969 122.271C150.076 122.271 162.324 110.024 162.324 94.9158C162.324 79.808 150.076 67.5607 134.969 67.5607C119.861 67.5607 107.614 79.808 107.614 94.9158C107.614 110.024 119.861 122.271 134.969 122.271Z" fill="#FFFCE6"/>
<path d="M89.9925 231.681C102.981 231.021 127.47 231.997 146.938 248.044C178.89 274.383 185.777 331.807 156.101 384.844H144.32C173.978 336.396 169.721 282.702 141.047 257.208C123.887 241.951 101.647 240.054 89.3384 240.19C89.5563 237.354 89.7743 234.517 89.9925 231.681Z" fill="url(#paint24_linear_32_1118)"/>
<path d="M122.321 211.744C120.072 205.859 115.699 201.03 110.064 198.211C108.436 192.185 104.557 187.016 99.226 183.769C93.5833 180.197 86.9231 178.578 80.2701 179.161C74.9778 175.146 68.4992 173.008 61.8567 173.084C55.2143 173.008 48.7357 175.146 43.4434 179.161C36.7905 178.578 30.1304 180.197 24.4877 183.769C19.1573 187.016 15.2776 192.185 13.6501 198.211C8.01532 201.03 3.64183 205.858 1.39261 211.744C0.340193 214.531 -0.12511 217.505 0.0258724 220.481C0.176855 223.456 0.940867 226.368 2.27001 229.034C0.940869 231.7 0.176849 234.612 0.0258491 237.587C-0.125151 240.563 0.340126 243.537 1.39251 246.324C3.64189 252.209 8.01541 257.038 13.6501 259.857C15.2777 265.882 19.1575 271.052 24.488 274.298C30.1307 277.871 36.7908 279.49 43.4437 278.907C48.736 282.921 55.2145 285.06 61.8569 284.984C68.4993 285.06 74.9779 282.921 80.2701 278.906C86.9229 279.489 93.583 277.87 99.2256 274.298C104.556 271.052 108.436 265.882 110.063 259.857C115.698 257.037 120.072 252.209 122.321 246.323C123.373 243.536 123.838 240.562 123.687 237.587C123.536 234.612 122.772 231.7 121.444 229.034C122.773 226.368 123.537 223.456 123.688 220.481C123.839 217.506 123.374 214.531 122.321 211.744V211.744ZM61.8568 240.224C60.4408 240.224 59.0263 240.317 57.6225 240.502C56.6023 239.62 55.5197 238.813 54.3831 238.087C53.2264 237.349 52.0196 236.692 50.7716 236.122C50.5369 234.886 50.1998 233.672 49.764 232.492C49.3219 231.297 48.7836 230.141 48.1546 229.034C48.7839 227.927 49.3223 226.77 49.7646 225.576C50.2004 224.396 50.5374 223.182 50.7721 221.946C52.0201 221.375 53.2269 220.719 54.3835 219.981C55.5203 219.255 56.6031 218.447 57.6235 217.565C60.4342 217.937 63.2815 217.937 66.0921 217.565C67.1125 218.447 68.1953 219.255 69.3321 219.981C70.4888 220.719 71.6956 221.376 72.9437 221.946C73.1784 223.182 73.5154 224.396 73.9512 225.576C74.3933 226.77 74.9315 227.926 75.5605 229.033C74.9314 230.141 74.3932 231.297 73.951 232.492C73.5152 233.671 73.1782 234.886 72.9435 236.122C71.6954 236.692 70.4887 237.348 69.332 238.086C68.1953 238.813 67.1125 239.62 66.092 240.502C64.6879 240.317 63.2731 240.224 61.8568 240.224V240.224Z" fill="url(#paint25_linear_32_1118)"/>
<path d="M61.8569 250.139C73.513 250.139 82.9621 240.69 82.9621 229.034C82.9621 217.378 73.513 207.928 61.8569 207.928C50.2008 207.928 40.7517 217.378 40.7517 229.034C40.7517 240.69 50.2008 250.139 61.8569 250.139Z" fill="url(#paint26_linear_32_1118)"/>
<defs>
<linearGradient id="paint0_linear_32_1118" x1="229.778" y1="258.596" x2="102.945" y2="340.107" gradientUnits="userSpaceOnUse">
<stop stop-color="#FFFCE6"/>
<stop offset="1" stop-color="#E6E3CF"/>
</linearGradient>
<linearGradient id="paint1_linear_32_1118" x1="11644.1" y1="77736.3" x2="839.71" y2="76003.6" gradientUnits="userSpaceOnUse">
<stop stop-color="#FFFCE6"/>
<stop offset="1" stop-color="#E6E3CF"/>
</linearGradient>
<linearGradient id="paint2_linear_32_1118" x1="7901.48" y1="63273.5" x2="10635.9" y2="65901.1" gradientUnits="userSpaceOnUse">
<stop stop-color="#FFE6FE"/>
<stop offset="1" stop-color="#E6CFE4"/>
</linearGradient>
<linearGradient id="paint3_linear_32_1118" x1="9239.11" y1="60886.4" x2="11839.1" y2="63936" gradientUnits="userSpaceOnUse">
<stop stop-color="#FFE6FE"/>
<stop offset="1" stop-color="#E6CFE4"/>
</linearGradient>
<linearGradient id="paint4_linear_32_1118" x1="12626.5" y1="53957.7" x2="14597.2" y2="57539.6" gradientUnits="userSpaceOnUse">
<stop stop-color="#FFE6FE"/>
<stop offset="1" stop-color="#E6CFE4"/>
</linearGradient>
<linearGradient id="paint5_linear_32_1118" x1="16710.1" y1="43202.7" x2="17826.3" y2="46566.8" gradientUnits="userSpaceOnUse">
<stop stop-color="#FFE6FE"/>
<stop offset="1" stop-color="#E6CFE4"/>
</linearGradient>
<linearGradient id="paint6_linear_32_1118" x1="19748.4" y1="31346" x2="20277" y2="33946" gradientUnits="userSpaceOnUse">
<stop stop-color="#FFE6FE"/>
<stop offset="1" stop-color="#E6CFE4"/>
</linearGradient>
<linearGradient id="paint7_linear_32_1118" x1="21346.6" y1="23986.1" x2="21638.3" y2="26014.9" gradientUnits="userSpaceOnUse">
<stop stop-color="#FFE6FE"/>
<stop offset="1" stop-color="#E6CFE4"/>
</linearGradient>
<linearGradient id="paint8_linear_32_1118" x1="21346.6" y1="23969.3" x2="21638.3" y2="25998.2" gradientUnits="userSpaceOnUse">
<stop stop-color="#FFE6FE"/>
<stop offset="1" stop-color="#E6CFE4"/>
</linearGradient>
<linearGradient id="paint9_linear_32_1118" x1="19748.3" y1="31295.8" x2="20276.9" y2="33895.9" gradientUnits="userSpaceOnUse">
<stop stop-color="#FFE6FE"/>
<stop offset="1" stop-color="#E6CFE4"/>
</linearGradient>
<linearGradient id="paint10_linear_32_1118" x1="16710.1" y1="43126" x2="17826.4" y2="46490" gradientUnits="userSpaceOnUse">
<stop stop-color="#FFE6FE"/>
<stop offset="1" stop-color="#E6CFE4"/>
</linearGradient>
<linearGradient id="paint11_linear_32_1118" x1="12626.6" y1="53860.9" x2="14597.2" y2="57442.8" gradientUnits="userSpaceOnUse">
<stop stop-color="#FFE6FE"/>
<stop offset="1" stop-color="#E6CFE4"/>
</linearGradient>
<linearGradient id="paint12_linear_32_1118" x1="9239.05" y1="60776.6" x2="11839.1" y2="63826.2" gradientUnits="userSpaceOnUse">
<stop stop-color="#FFE6FE"/>
<stop offset="1" stop-color="#E6CFE4"/>
</linearGradient>
<linearGradient id="paint13_linear_32_1118" x1="7901.48" y1="63159.3" x2="10635.9" y2="65786.9" gradientUnits="userSpaceOnUse">
<stop stop-color="#FFE6FE"/>
<stop offset="1" stop-color="#E6CFE4"/>
</linearGradient>
<linearGradient id="paint14_linear_32_1118" x1="9273" y1="60776.6" x2="11873" y2="63826.2" gradientUnits="userSpaceOnUse">
<stop stop-color="#FFE6FE"/>
<stop offset="1" stop-color="#E6CFE4"/>
</linearGradient>
<linearGradient id="paint15_linear_32_1118" x1="12691.1" y1="53860.8" x2="14661.8" y2="57442.7" gradientUnits="userSpaceOnUse">
<stop stop-color="#FFE6FE"/>
<stop offset="1" stop-color="#E6CFE4"/>
</linearGradient>
<linearGradient id="paint16_linear_32_1118" x1="16797.7" y1="43125.9" x2="17914" y2="46490" gradientUnits="userSpaceOnUse">
<stop stop-color="#FFE6FE"/>
<stop offset="1" stop-color="#E6CFE4"/>
</linearGradient>
<linearGradient id="paint17_linear_32_1118" x1="19852.7" y1="31295.9" x2="20381.3" y2="33896" gradientUnits="userSpaceOnUse">
<stop stop-color="#FFE6FE"/>
<stop offset="1" stop-color="#E6CFE4"/>
</linearGradient>
<linearGradient id="paint18_linear_32_1118" x1="21459.7" y1="23969.4" x2="21751.4" y2="25998.2" gradientUnits="userSpaceOnUse">
<stop stop-color="#FFE6FE"/>
<stop offset="1" stop-color="#E6CFE4"/>
</linearGradient>
<linearGradient id="paint19_linear_32_1118" x1="21459.7" y1="23986" x2="21751.4" y2="26014.9" gradientUnits="userSpaceOnUse">
<stop stop-color="#FFE6FE"/>
<stop offset="1" stop-color="#E6CFE4"/>
</linearGradient>
<linearGradient id="paint20_linear_32_1118" x1="9272.9" y1="60886.4" x2="11872.9" y2="63935.9" gradientUnits="userSpaceOnUse">
<stop stop-color="#FFE6FE"/>
<stop offset="1" stop-color="#E6CFE4"/>
</linearGradient>
<linearGradient id="paint21_linear_32_1118" x1="19852.7" y1="31345.9" x2="20381.3" y2="33946" gradientUnits="userSpaceOnUse">
<stop stop-color="#FFE6FE"/>
<stop offset="1" stop-color="#E6CFE4"/>
</linearGradient>
<linearGradient id="paint22_linear_32_1118" x1="16797.7" y1="43202.7" x2="17914" y2="46566.8" gradientUnits="userSpaceOnUse">
<stop stop-color="#FFE6FE"/>
<stop offset="1" stop-color="#E6CFE4"/>
</linearGradient>
<linearGradient id="paint23_linear_32_1118" x1="12691.1" y1="53957.7" x2="14661.8" y2="57539.6" gradientUnits="userSpaceOnUse">
<stop stop-color="#FFE6FE"/>
<stop offset="1" stop-color="#E6CFE4"/>
</linearGradient>
<linearGradient id="paint24_linear_32_1118" x1="14658.5" y1="42860.6" x2="7498.49" y2="45432.3" gradientUnits="userSpaceOnUse">
<stop stop-color="#FFFCE6"/>
<stop offset="1" stop-color="#E6E3CF"/>
</linearGradient>
<linearGradient id="paint25_linear_32_1118" x1="13977.3" y1="22126.4" x2="2099.91" y2="30565.4" gradientUnits="userSpaceOnUse">
<stop stop-color="#FFE6FE"/>
<stop offset="1" stop-color="#E6CFE4"/>
</linearGradient>
<linearGradient id="paint26_linear_32_1118" x1="3401.28" y1="9393.84" x2="1902.22" y2="10357.2" gradientUnits="userSpaceOnUse">
<stop stop-color="#FFFCE6"/>
<stop offset="1" stop-color="#E6E3CF"/>
</linearGradient>
</defs>
</svg>
